name GIL08_fast1.mot
datacolumns 153
datarows 4
range 0.11666668 0.14166668
endheader

                time	           pelvis_tx	           pelvis_ty	           pelvis_tz	         pelvis_tilt	         pelvis_list	     pelvis_rotation	       hip_flexion_r	     hip_adduction_r	      hip_rotation_r	        knee_angle_r	       ankle_angle_r	    subtalar_angle_r	         mtp_angle_r	       hip_flexion_l	     hip_adduction_l	      hip_rotation_l	        knee_angle_l	       ankle_angle_l	    subtalar_angle_l	         mtp_angle_l	    lumbar_extension	      lumbar_bending	     lumbar_rotation	     ground_force_vx	     ground_force_vy	     ground_force_vz	     ground_force_px	     ground_force_py	     ground_force_pz	     ground_force_vx	     ground_force_vy	     ground_force_vz	     ground_force_px	     ground_force_py	     ground_force_pz	     ground_torque_x	     ground_torque_y	     ground_torque_z	     ground_torque_x	     ground_torque_y	     ground_torque_z	    ground_marker_px	    ground_marker_py	    ground_marker_pz	    ground_marker_px	    ground_marker_py	    ground_marker_pz	    ground_marker_px	    ground_marker_py	    ground_marker_pz	    ground_marker_px	    ground_marker_py	    ground_marker_pz	    ground_marker_px	    ground_marker_py	    ground_marker_pz	    ground_marker_px	    ground_marker_py	    ground_marker_pz	    ground_marker_px	    ground_marker_py	    ground_marker_pz	    ground_marker_px	    ground_marker_py	    ground_marker_pz	    ground_marker_px	    ground_marker_py	    ground_marker_pz	    ground_marker_px	    ground_marker_py	    ground_marker_pz	    ground_marker_px	    ground_marker_py	    ground_marker_pz	    ground_marker_px	    ground_marker_py	    ground_marker_pz	    ground_marker_px	    ground_marker_py	    ground_marker_pz	    ground_marker_px	    ground_marker_py	    ground_marker_pz	    ground_marker_px	    ground_marker_py	    ground_marker_pz	    ground_marker_px	    ground_marker_py	    ground_marker_pz	    ground_marker_px	    ground_marker_py	    ground_marker_pz	    ground_marker_px	    ground_marker_py	    ground_marker_pz	    ground_marker_px	    ground_marker_py	    ground_marker_pz	    ground_marker_px	    ground_marker_py	    ground_marker_pz	    ground_marker_px	    ground_marker_py	    ground_marker_pz	    ground_marker_px	    ground_marker_py	    ground_marker_pz	    ground_marker_px	    ground_marker_py	    ground_marker_pz	    ground_marker_px	    ground_marker_py	    ground_marker_pz	    ground_marker_px	    ground_marker_py	    ground_marker_pz	    ground_marker_px	    ground_marker_py	    ground_marker_pz	    ground_marker_px	    ground_marker_py	    ground_marker_pz	    ground_marker_px	    ground_marker_py	    ground_marker_pz	    ground_marker_px	    ground_marker_py	    ground_marker_pz	    ground_marker_px	    ground_marker_py	    ground_marker_pz	    ground_marker_px	    ground_marker_py	    ground_marker_pz	    ground_marker_px	    ground_marker_py	    ground_marker_pz	    ground_marker_px	    ground_marker_py	    ground_marker_pz	    ground_marker_px	    ground_marker_py	    ground_marker_pz	    ground_marker_px	    ground_marker_py	    ground_marker_pz	    ground_marker_px	    ground_marker_py	    ground_marker_pz	    ground_marker_px	    ground_marker_py	    ground_marker_pz	
          0.11666668	          0.56223047	          0.95354629	         -0.24895743	          4.98698378	          8.30963802	        -11.18267250	        -15.73797321	        -13.71004200	          6.96676159	        -37.51558304	        -21.81079865	          0.00000000	          0.00000000	         20.15522003	          3.79039955	         -1.34514117	        -26.09218788	          2.04269791	          0.00000000	          0.00000000	        -62.60384750	         60.51345444	         36.01685715	          0.00000000	          0.00000000	          0.00000000	          1.21891760	          0.00000000	         -0.17664749	        -89.18783224	        642.55341780	         17.27715618	          0.65904358	          0.00000000	         -0.31448856	          0.00000000	          0.00000000	          0.00000000	          0.00000000	          1.29398486	          0.00000000	          0.48504615	          0.87034535	         -0.26772773	          0.47479379	          0.85253954	         -0.22514068	          0.49715185	          0.86501241	         -0.32858968	          0.37859932	          0.44362184	         -0.19235609	          0.66351163	          0.48350883	         -0.31026191	          0.05482205	          0.17823762	         -0.18387190	          0.64451468	          0.06800177	         -0.30997813	          0.56223047	          0.95354629	         -0.24895743	          0.54074913	          0.94156253	         -0.14956520	          0.58371174	          0.96553004	         -0.34834963	          0.35707074	          0.97962976	         -0.24411005	          0.37148920	          0.98709929	         -0.32811084	          0.37606508	          0.44896474	         -0.13315068	          0.67635506	          0.48632160	         -0.36829108	          0.39901868	          0.44271615	         -0.25218308	          0.64123648	          0.47868037	         -0.26323694	          0.04903526	          0.18646917	         -0.14722829	          0.64601284	          0.06790632	         -0.34944957	          0.06042818	          0.18163560	         -0.21293546	          0.65110976	          0.07414771	         -0.27965695	          0.42523092	          1.43779409	         -0.26900595	          0.00000000	          0.00000000	          0.00000000	          0.52865362	          1.36437273	         -0.33708063	          0.00000000	          0.00000000	          0.00000000	          0.00000000	          0.00000000	          0.00000000	          0.41434658	          0.54733175	         -0.05379364	          0.75926495	          0.65091228	         -0.30666724	          0.45824784	          0.59758019	         -0.12186327	          0.67910552	          0.67900306	         -0.36410719	          0.44814962	          0.51527196	         -0.14040659	          0.69572484	          0.59334487	         -0.35297218	          0.11046375	          0.23414630	         -0.07981280	          0.75419325	          0.17584261	         -0.29349378	          0.15622982	          0.27353135	         -0.14375503	          0.69237143	          0.22696897	         -0.31093773	          0.07022540	          0.05630697	         -0.19653505	          0.77253920	          0.04264393	         -0.31415007	
          0.12500001	          0.57576561	          0.95506746	         -0.24959674	          5.04615211	          8.50321484	        -11.01038647	        -14.34429455	        -13.73574352	          6.82103634	        -40.09648132	        -22.36560631	          0.00000000	          0.00000000	         19.20797920	          4.31629086	         -0.81100142	        -26.06442833	          2.94156408	          0.00000000	          0.00000000	        -62.22615814	         60.59967041	         35.08685684	          0.00000000	          0.00000000	          0.00000000	          1.21968799	          0.00000000	         -0.17693510	        -83.45156525	        648.87395692	         21.60190494	          0.65933435	          0.00000000	         -0.31474298	          0.00000000	          0.00000000	          0.00000000	          0.00000000	          1.36124365	          0.00000000	          0.49856067	          0.87164450	         -0.26900250	          0.48853818	          0.85384393	         -0.22593369	          0.51061463	          0.86673385	         -0.32939205	          0.40247139	          0.44215250	         -0.19239466	          0.67033136	          0.48308909	         -0.31086051	          0.07389326	          0.18384989	         -0.18319577	          0.64440060	          0.06800716	         -0.31029272	          0.57576561	          0.95506746	         -0.24959674	          0.55459130	          0.94270426	         -0.15036607	          0.59693992	          0.96743065	         -0.34882742	          0.37066737	          0.98070771	         -0.24394931	          0.38459948	          0.98871648	         -0.32799906	          0.39963949	          0.44756615	         -0.13320917	          0.68366331	          0.48584151	         -0.36878228	          0.42427415	          0.44124201	         -0.25303823	          0.64816803	          0.47836700	         -0.26455173	          0.06848576	          0.19203600	         -0.14648411	          0.64612728	          0.06784531	         -0.34975463	          0.07828677	          0.18585934	         -0.21305278	          0.65114671	          0.07413267	         -0.27996010	          0.43869695	          1.43922400	         -0.26994416	          0.00000000	          0.00000000	          0.00000000	          0.54214907	          1.36581326	         -0.33807659	          0.00000000	          0.00000000	          0.00000000	          0.00000000	          0.00000000	          0.00000000	          0.43507221	          0.54647595	         -0.05418573	          0.76891655	          0.64903855	         -0.30607373	          0.47777894	          0.59729779	         -0.12158713	          0.68951613	          0.67882395	         -0.36373326	          0.47028181	          0.51469380	         -0.14057156	          0.70481801	          0.59289479	         -0.35314193	          0.13121432	          0.23809718	         -0.07929952	          0.75595200	          0.17411986	         -0.29324004	          0.17046478	          0.27724546	         -0.14228930	          0.69496083	          0.22620031	         -0.31127912	          0.08557838	          0.06111657	         -0.19538713	          0.77256000	          0.04247614	         -0.31444597	
          0.13333336	          0.58915913	          0.95654833	         -0.24994883	          5.07984495	          8.59230709	        -10.85753155	        -12.87476730	        -13.57887554	          6.73487520	        -42.66990280	        -21.78243828	          0.00000000	          0.00000000	         18.19628525	          4.67868710	         -0.08860782	        -25.88790703	          3.76988459	          0.00000000	          0.00000000	        -62.12791824	         60.69691467	         34.46653366	          0.00000000	          0.00000000	          0.00000000	          1.22043237	          0.00000000	         -0.17715120	        -76.98761975	        651.89335854	         26.27994333	          0.65986395	          0.00000000	         -0.31504788	          0.00000000	          0.00000000	          0.00000000	          0.00000000	          1.39374951	          0.00000000	          0.51203406	          0.87313056	         -0.27031121	          0.50208896	          0.85519487	         -0.22626249	          0.52390105	          0.86829913	         -0.32975003	          0.42682356	          0.44111648	         -0.19247697	          0.67659003	          0.48257565	         -0.31153089	          0.09393378	          0.18944700	         -0.18319139	          0.64429283	          0.06802749	         -0.31062213	          0.58915913	          0.95654833	         -0.24994883	          0.56826580	          0.94399607	         -0.15082033	          0.61005247	          0.96910059	         -0.34907731	          0.38409555	          0.98181802	         -0.24387902	          0.39756146	          0.99037343	         -0.32797217	          0.42369181	          0.44651371	         -0.13330509	          0.69051659	          0.48535931	         -0.36931109	          0.44988444	          0.43977869	         -0.25365573	          0.65436018	          0.47825229	         -0.26598424	          0.08890942	          0.19745085	         -0.14638522	          0.64617783	          0.06779414	         -0.35007644	          0.09804609	          0.19194202	         -0.21271855	          0.65113330	          0.07418583	         -0.28041437	          0.45213047	          1.44072962	         -0.27079609	          0.00000000	          0.00000000	          0.00000000	          0.55534953	          1.36728764	         -0.33901638	          0.00000000	          0.00000000	          0.00000000	          0.00000000	          0.00000000	          0.00000000	          0.45615366	          0.54584360	         -0.05459082	          0.77780694	          0.64729387	         -0.30506274	          0.49780965	          0.59732711	         -0.12176093	          0.69945765	          0.67876905	         -0.36337510	          0.49287066	          0.51444757	         -0.14084136	          0.71349519	          0.59259504	         -0.35319111	          0.15286145	          0.24174026	         -0.07928593	          0.75753039	          0.17252615	         -0.29320475	          0.19254640	          0.28112707	         -0.14196175	          0.69737345	          0.22549383	         -0.31179178	          0.10430519	          0.06617685	         -0.19409086	          0.77254432	          0.04234507	         -0.31475160	
          0.14166668	          0.60239911	          0.95801198	         -0.25009483	          5.09280014	          8.58316326	        -10.71167850	        -11.34996986	        -13.25688457	          6.68106461	        -45.17861938	        -20.25899124	          0.00000000	          0.00000000	         17.13753891	          4.90745497	          0.75756508	        -25.59380913	          4.52972031	          0.00000000	          0.00000000	        -62.16237259	         60.86009216	         34.01303101	          0.00000000	          0.00000000	          0.00000000	          1.22115125	          0.00000000	         -0.17729138	        -70.71196647	        650.08572231	         30.31466315	          0.66080994	          0.00000000	         -0.31534787	          0.00000000	          0.00000000	          0.00000000	          0.00000000	          1.39100488	          0.00000000	          0.52553248	          0.87483644	         -0.27157053	          0.51545030	          0.85660243	         -0.22620407	          0.53699386	          0.86973476	         -0.32974428	          0.45154059	          0.44058818	         -0.19260734	          0.68238896	          0.48202008	         -0.31217462	          0.11496954	          0.19479622	         -0.18387555	          0.64423537	          0.06805187	         -0.31094027	          0.60239911	          0.95801198	         -0.25009483	          0.58177590	          0.94544065	         -0.15097751	          0.62302232	          0.97058338	         -0.34921214	          0.39737609	          0.98295099	         -0.24386261	          0.41041702	          0.99206108	         -0.32798329	          0.44811264	          0.44589275	         -0.13344349	          0.69696587	          0.48487559	         -0.36979067	          0.47582570	          0.43891791	         -0.25425440	          0.65996999	          0.47821897	         -0.26731896	          0.11029010	          0.20251526	         -0.14696322	          0.64619493	          0.06775362	         -0.35039049	          0.11883800	          0.19749570	         -0.21345440	          0.65112299	          0.07432245	         -0.28093362	          0.46550134	          1.44232190	         -0.27159980	          0.00000000	          0.00000000	          0.00000000	          0.56843632	          1.36880791	         -0.33984300	          0.00000000	          0.00000000	          0.00000000	          0.00000000	          0.00000000	          0.00000000	          0.47751546	          0.54551750	         -0.05497768	          0.78603274	          0.64568287	         -0.30376500	          0.51834476	          0.59775394	         -0.12211306	          0.70890963	          0.67865324	         -0.36297357	          0.51584578	          0.51484621	         -0.14115028	          0.72172624	          0.59229136	         -0.35307318	          0.17530291	          0.24501084	         -0.07979550	          0.75897068	          0.17103237	         -0.29338592	          0.21492831	          0.28464308	         -0.14242606	          0.69962108	          0.22486182	         -0.31236821	          0.12622133	          0.07113571	         -0.19264781	          0.77252054	          0.04223233	         -0.31504166	
